<svg id="Layer_1" xmlns="http://www.w3.org/2000/svg" xmlns:xlink="http://www.w3.org/1999/xlink" viewBox="0 0 8938 7150.4"><style>.st0{fill:none;} .st1{opacity:0.5;fill:#BBE5F7;} .st2{fill:#F8B8BA;} .st3{fill:none;stroke:#231F20;stroke-width:4;stroke-miterlimit:10;} .st4{fill:url(#SVGID_1_);stroke:#231F20;stroke-miterlimit:10;}</style><pattern x="6321" y="2128" width="3888" height="2608.9" patternUnits="userSpaceOnUse" id="Arizona1" viewBox="15.2 -2608.9 3888 2608.9" overflow="visible"><path class="st0" d="M15.2-2608.9h3888V0H15.2z"/><path class="st1" d="M3360.1-1158.5l497.1 499.1v639.2l-497.1-499.1z"/><path class="st2" d="M3857.2-20.2l-497.1-499.1h-395.7v499.1z"/><path class="st3" d="M2607.2-8.3h1263.1v-1288.5"/><path class="st3" d="M3857.2-659.4v639.2h-892.8"/><path class="st3" d="M2607.2-34.3h1236.5v-1262.5"/><path class="st3" d="M2964.4-48.3h866.2v-639.2"/><path class="st3" d="M2607.2-60.3h1210.4v-1243"/><path class="st3" d="M2964.4-73.3h840.2v-639.2"/><path class="st3" d="M2607.2-87.4H3791v-1209.4"/><path class="st3" d="M2964.4-101.4H3778v-639.2"/><path class="st3" d="M2607.2-113.4h1157.7v-1183.4"/><path class="st3" d="M2964.4-125.5h788v-639.2"/><path class="st3" d="M2607.2-139.6h1131.7v-1157.2"/><path class="st3" d="M2964.4-153.6h761.4v-639.2"/><path class="st3" d="M2607.2-165.5h1105.6v-1131.3"/><path class="st3" d="M2964.4-178.1h735.3v-639.3"/><path class="st3" d="M2607.2-192.2h1079v-1104.6"/><path class="st3" d="M2964.4-206.3h708.8v-639.2"/><path class="st3" d="M2607.2-218.2h1052.9v-1078.6"/><path class="st3" d="M2964.4-230.4h683.1v-639.2"/><path class="st3" d="M2607.2-244.5H3634v-1052.3"/><path class="st3" d="M2964.4-258.5H3621v-639.2"/><path class="st3" d="M2607.2-270.4h1000.7v-1026.4"/><path class="st3" d="M2964.4-282.1h631.5v-639.2"/><path class="st3" d="M2607.2-296.1h975.1v-1000.7"/><path class="st3" d="M2964.4-310.2h604.9v-639.2"/><path class="st3" d="M2607.2-322.1h949v-974.7"/><path class="st3" d="M2964.4-334.7h578.7v-639.2"/><path class="st3" d="M2607.2-348.8h922.3v-948"/><path class="st3" d="M2964.4-362.8h552.1V-1002"/><path class="st3" d="M2607.2-374.7h896.3v-922.1"/><path class="st3" d="M2964-386.9h526.9v-639.2"/><path class="st3" d="M2607.2-400.9h870.2v-895.9"/><path class="st3" d="M2964.4-415h499.9v-639.2"/><path class="st3" d="M2607.2-426.9h844.1v-869.9"/><path class="st3" d="M2964.4-439h474.9v-639.3"/><path class="st3" d="M2607.2-453.1h818.6v-843.7"/><path class="st3" d="M2964.4-467.1h448.4v-639.3"/><path class="st3" d="M2607.2-479.1h792.5v-817.7"/><path class="st3" d="M2964.4-491.2h422.3v-639.2"/><path class="st3" d="M2607.2-505.3h765.9v-791.5"/><path class="st3" d="M2964.4-519.3h395.7v-639.2"/><path class="st3" d="M2607.2-531.3h739.9v-765.5M5199.2-9.4H3890v-1288.5"/><path class="st3" d="M4795.8-21.4H3903v-639.2"/><g><path class="st1" d="M513.3-1158.5L16.1-659.4v639.2l497.2-499.1z"/><path class="st2" d="M16.5-20.2l497.1-499.1h395.7v499.1z"/><path class="st3" d="M1311.2-9.4H2v-1288.5"/><path class="st3" d="M907.8-21.4H15v-639.2"/><path class="st3" d="M1311.2-35.5H28.6v-1262.4"/><path class="st3" d="M907.8-49.5H41.6v-639.2"/><path class="st3" d="M1311.2-61.4H54.7v-1243.1"/><path class="st3" d="M907.8-74.5H67.7v-639.2"/><path class="st3" d="M1311.2-88.6H81.2v-1209.3"/><path class="st3" d="M907.8-102.6H94.3v-639.2"/><path class="st3" d="M1311.2-114.5H107.3v-1183.4"/><path class="st3" d="M907.8-126.7H119.9v-639.2"/><path class="st3" d="M1311.2-140.7H133.4v-1157.2"/><path class="st3" d="M907.8-154.8H146.4V-794"/><path class="st3" d="M1311.2-166.7H159.5v-1131.2"/><path class="st3" d="M907.8-179.3H172.5v-639.2"/><path class="st3" d="M1311.2-193.4H186.1v-1104.5"/><path class="st3" d="M907.8-207.4H199.1v-639.2"/><path class="st3" d="M1311.2-219.4h-1099v-1078.5"/><path class="st3" d="M907.8-231.5H224.7v-639.3"/><path class="st3" d="M1311.2-245.6h-1073v-1052.3"/><path class="st3" d="M907.8-259.6H251.3v-639.3"/><path class="st3" d="M1311.2-271.6H264.3v-1026.3"/><path class="st3" d="M907.8-283.2H276.4v-639.3"/><path class="st3" d="M1311.2-297.3H289.9v-1000.6"/><path class="st3" d="M907.8-311.3H303v-639.3"/><path class="st3" d="M1311.2-323.3H316v-974.6"/><path class="st3" d="M907.8-335.8H329.2v-639.3"/><path class="st3" d="M1311.2-349.9H342.7v-948"/><path class="st3" d="M907.8-363.9h-552v-639.3"/><path class="st3" d="M1311.2-375.9H368.8v-922"/><path class="st3" d="M912.2-388H381.4v-639.2"/><path class="st3" d="M1311.2-402.1H394.9v-895.8"/><path class="st3" d="M907.8-416.1H407.9v-639.2"/><path class="st3" d="M1311.2-428.1H421v-869.8"/><path class="st3" d="M907.8-440.2H432.9v-639.2"/><path class="st3" d="M1311.2-454.3H446.5v-843.6"/><path class="st3" d="M907.8-468.3H459.5v-639.2"/><path class="st3" d="M1311.2-480.2H472.5v-817.7"/><path class="st3" d="M907.8-492.4H485.6v-639.2"/><path class="st3" d="M1311.2-506.5H499.1v-791.4"/><path class="st3" d="M907.8-520.5H512.2v-639.2"/><path class="st3" d="M1311.2-532.4h-786v-765.5"/></g><g><path class="st1" d="M3865.2-2590.7l-497.1 499.1v639.3l497.1-499.1z"/><path class="st2" d="M3856.9-2586.9l-497.2 499.1h-395.6v-499.1z"/><path class="st3" d="M2607.2-2599.5h1262.7V-1311"/><path class="st3" d="M2964.1-2587.6h892.8v639.3"/><path class="st3" d="M2607.2-2573.5h1236.1V-1311"/><path class="st3" d="M2964.1-2559.5h866.2v639.3"/><path class="st3" d="M2607.2-2547.5h1210v1243"/><path class="st3" d="M2964.1-2534.5h840.1v639.3"/><path class="st3" d="M2608.9-2520.4h1181.8V-1311"/><path class="st3" d="M2964.1-2506.4h813.5v639.3"/><path class="st3" d="M2608.9-2494.4h1155.7V-1311"/><path class="st3" d="M2964.1-2482.3H3752v639.2"/><path class="st3" d="M2608.9-2468.2h1129.6V-1311"/><path class="st3" d="M2964.1-2454.2h761.3v639.2"/><path class="st3" d="M2608.9-2442.2h1103.5V-1311"/><path class="st3" d="M2964.1-2429.6h735.3v639.2"/><path class="st3" d="M2607.2-2415.5h1078.6V-1311"/><path class="st3" d="M2964.1-2401.5h708.7v639.2"/><path class="st3" d="M2607.2-2389.6h1052.5V-1311"/><path class="st3" d="M2964.1-2377.4h683.1v639.2"/><path class="st3" d="M2608.9-2363.3h1024.8V-1311"/><path class="st3" d="M2964.1-2349.3h656.5v639.2"/><path class="st3" d="M2608.9-2337.4h998.7V-1311"/><path class="st3" d="M2964.1-2325.7h631.4v639.2"/><path class="st3" d="M2607.2-2311.6H3582V-1311"/><path class="st3" d="M2964.1-2297.6h604.8v639.2"/><path class="st3" d="M2608.9-2285.7h947v974.7"/><path class="st3" d="M2964.1-2273.1h578.6v639.2"/><path class="st3" d="M2608.9-2259h920.3v948"/><path class="st3" d="M2964.1-2245h552v639.2"/><path class="st3" d="M2608.9-2233h894.2v922"/><path class="st3" d="M2967.4-2220.9h523.1v639.2"/><path class="st3" d="M2607.2-2206.8H3477v895.8"/><path class="st3" d="M2964.1-2192.8H3464v639.2"/><path class="st3" d="M2608.9-2180.9h842v869.9"/><path class="st3" d="M2964.1-2168.7H3439v639.2"/><path class="st3" d="M2608.9-2154.7h816.5v843.7"/><path class="st3" d="M2964.1-2140.6h448.3v639.2"/><path class="st3" d="M2608.9-2128.7h790.5v817.7"/><path class="st3" d="M2964.1-2116.6h422.2v639.3"/><path class="st3" d="M2608.9-2102.5h763.9v791.5"/><path class="st3" d="M2964.1-2088.5h395.6v639.3"/><path class="st3" d="M2607.2-2076.5h739.5v765.5M5199.2-2600.7H3890.4v1288.5"/><path class="st3" d="M4796.2-2588.7h-892.8v639.2"/></g><g><path class="st1" d="M1416.1-2463l497.1 499.1v639.2l-497.1-499.1zM1960.1-1284.3l497.2 499.1v639.3L1960.1-645zM2457.3-2463l-497.2 499.1v639.2l497.2-499.1zM1921.2-1286.2l-497.1 499.1v639.2L1921.2-647z"/><path class="st2" d="M1913.2-1324.7l-497.1-499.1h-395.7v499.1zM1960.5-1324.7l497.1-499.1h395.7v499.1zM1960.5-1282.4l497.1 499.1h395.7v-499.1zM1912.9-1282.4l-497.2 499.1h-395.6v-499.1z"/><path class="st3" d="M663.2-1312.7h1263.1v-1288.6"/><path class="st3" d="M1913.2-1963.9v639.2h-892.8"/><path class="st3" d="M663.2-1338.8h1236.5v-1262.5"/><path class="st3" d="M1020.4-1352.8h866.2V-1992"/><path class="st3" d="M663.2-1364.7h1210.4v-1243.1"/><path class="st3" d="M1020.4-1377.8h840.2V-2017"/><path class="st3" d="M663.2-1391.9H1847v-1209.4"/><path class="st3" d="M1020.4-1405.9H1834v-639.2"/><path class="st3" d="M663.2-1417.8h1157.7v-1183.5"/><path class="st3" d="M1020.4-1430h788v-639.2"/><path class="st3" d="M663.2-1444.1h1131.7v-1157.2"/><path class="st3" d="M1020.4-1458.1h761.4v-639.2"/><path class="st3" d="M663.2-1470h1105.6v-1131.3"/><path class="st3" d="M1020.4-1482.6h735.3v-639.3"/><path class="st3" d="M663.2-1496.7h1079v-1104.6"/><path class="st3" d="M1020.4-1510.7h708.8V-2150"/><path class="st3" d="M663.2-1522.7h1052.9v-1078.6"/><path class="st3" d="M1020.4-1534.8h683.1v-639.3"/><path class="st3" d="M663.2-1548.9H1690v-1052.4"/><path class="st3" d="M1020.4-1562.9H1677v-639.3"/><path class="st3" d="M663.2-1574.9h1000.7v-1026.4"/><path class="st3" d="M1020.4-1586.5h631.5v-639.3"/><path class="st3" d="M663.2-1600.6h975.1v-1000.7"/><path class="st3" d="M1020.4-1614.6h604.9v-639.3"/><path class="st3" d="M663.2-1626.6h949v-974.7"/><path class="st3" d="M1020.4-1639.1h578.7v-639.3"/><path class="st3" d="M663.2-1653.2h922.3v-948.1"/><path class="st3" d="M1020.4-1667.2h552.1v-639.3"/><path class="st3" d="M663.2-1679.2h896.3v-922.1"/><path class="st3" d="M1020-1691.3h526.9v-639.3"/><path class="st3" d="M663.2-1705.4h870.2v-895.9"/><path class="st3" d="M1020.4-1719.4h499.9v-639.3"/><path class="st3" d="M663.2-1731.4h844.1v-869.9"/><path class="st3" d="M1020.4-1743.5h474.9v-639.2"/><path class="st3" d="M663.2-1757.6h818.6v-843.7"/><path class="st3" d="M1020.4-1771.6h448.4v-639.2"/><path class="st3" d="M663.2-1783.6h792.5v-817.7"/><path class="st3" d="M1020.4-1795.7h422.3v-639.2"/><path class="st3" d="M663.2-1809.8h765.9v-791.5"/><path class="st3" d="M1020.4-1823.8h395.7V-2463"/><path class="st3" d="M663.2-1835.7h739.9v-765.6M663.2-1295.1h1262.7V-6.5"/><path class="st3" d="M1020.1-1283.1h892.8v639.2"/><path class="st3" d="M663.2-1269h1236.1V-6.5"/><path class="st3" d="M1020.1-1255h866.2v639.2"/><path class="st3" d="M663.2-1243h1210V0"/><path class="st3" d="M1020.1-1230h840.1v639.2"/><path class="st3" d="M664.9-1215.9h1181.8V-6.5"/><path class="st3" d="M1020.1-1201.9h813.5v639.2"/><path class="st3" d="M664.9-1189.9h1155.7V-6.5"/><path class="st3" d="M1020.1-1177.8H1808v639.2"/><path class="st3" d="M664.9-1163.7h1129.6V-6.5"/><path class="st3" d="M1020.1-1149.7h761.3v639.2"/><path class="st3" d="M664.9-1137.8h1103.5V-6.5"/><path class="st3" d="M1020.1-1125.2h735.3v639.3"/><path class="st3" d="M663.2-1111.1h1078.6V-6.5"/><path class="st3" d="M1020.1-1097.1h708.7v639.3"/><path class="st3" d="M663.2-1085.1h1052.5V-6.5"/><path class="st3" d="M1020.1-1072.9h683.1v639.2"/><path class="st3" d="M664.9-1058.9h1024.8V-6.5"/><path class="st3" d="M1020.1-1044.8h656.5v639.2"/><path class="st3" d="M664.9-1032.9h998.7V-6.5"/><path class="st3" d="M1020.1-1021.3h631.4V-382"/><path class="st3" d="M663.2-1007.2H1638V-6.5"/><path class="st3" d="M1020.1-993.1h604.8v639.2"/><path class="st3" d="M664.9-981.2h947V-6.5"/><path class="st3" d="M1020.1-968.6h578.6v639.2"/><path class="st3" d="M664.9-954.5h920.3v948"/><path class="st3" d="M1020.1-940.5h552v639.2"/><path class="st3" d="M664.9-928.6h894.2V-6.5"/><path class="st3" d="M1023.4-916.5h523.1v639.3"/><path class="st3" d="M663.2-902.4H1533V-6.5"/><path class="st3" d="M1020.1-888.4H1520v639.3"/><path class="st3" d="M664.9-876.4h842V-6.5"/><path class="st3" d="M1020.1-864.3H1495V-225"/><path class="st3" d="M664.9-850.2h816.5V-6.5"/><path class="st3" d="M1020.1-836.2h448.3v639.3"/><path class="st3" d="M664.9-824.2h790.5V-6.5"/><path class="st3" d="M1020.1-812.1h422.2v639.2"/><path class="st3" d="M664.9-798h763.9V-6.5"/><path class="st3" d="M1020.1-784h395.6v639.2"/><path class="st3" d="M663.2-772h739.5V-6.5M3255.2-1313.9H1946v-1288.5"/><path class="st3" d="M2851.8-1325.8H1959v-639.3"/><path class="st3" d="M3255.2-1339.9H1972.6v-1262.5"/><path class="st3" d="M2851.8-1353.9h-866.2v-639.3"/><path class="st3" d="M3255.2-1365.9H1998.7v-1243"/><path class="st3" d="M2851.8-1378.9h-840.1v-639.3"/><path class="st3" d="M3255.2-1393h-1230v-1209.4"/><path class="st3" d="M2851.8-1407h-813.5v-639.3"/><path class="st3" d="M3255.2-1419H2051.3v-1183.4"/><path class="st3" d="M2851.8-1431.1h-787.9v-639.3"/><path class="st3" d="M3255.2-1445.2H2077.4v-1157.2"/><path class="st3" d="M2851.8-1459.2h-761.4v-639.3"/><path class="st3" d="M3255.2-1471.2H2103.5v-1131.2"/><path class="st3" d="M2851.8-1483.8h-735.3V-2123"/><path class="st3" d="M3255.2-1497.9H2130.1v-1104.5"/><path class="st3" d="M2851.8-1511.9h-708.7v-639.2"/><path class="st3" d="M3255.2-1523.8h-1099v-1078.6"/><path class="st3" d="M2851.8-1536h-683.1v-639.2"/><path class="st3" d="M3255.2-1550.1h-1073v-1052.3"/><path class="st3" d="M2851.8-1564.1h-656.5v-639.2"/><path class="st3" d="M3255.2-1576.1H2208.3v-1026.3"/><path class="st3" d="M2851.8-1587.7h-631.4v-639.2"/><path class="st3" d="M3255.2-1601.8H2233.9v-1000.6"/><path class="st3" d="M2851.8-1615.8H2247V-2255"/><path class="st3" d="M3255.2-1627.7H2260v-974.7"/><path class="st3" d="M2851.8-1640.3h-578.6v-639.2"/><path class="st3" d="M3255.2-1654.4h-968.5v-948"/><path class="st3" d="M2851.8-1668.4h-552v-639.2"/><path class="st3" d="M3255.2-1680.4h-942.4v-922"/><path class="st3" d="M2856.2-1692.5h-530.8v-639.2"/><path class="st3" d="M3255.2-1706.6h-916.3v-895.8"/><path class="st3" d="M2851.8-1720.6h-499.9v-639.2"/><path class="st3" d="M3255.2-1732.5H2365v-869.9"/><path class="st3" d="M2851.8-1744.7h-474.9v-639.2"/><path class="st3" d="M3255.2-1758.8h-864.7v-843.6"/><path class="st3" d="M2851.8-1772.8h-448.3V-2412"/><path class="st3" d="M3255.2-1784.7h-838.7v-817.7"/><path class="st3" d="M2851.8-1796.8h-422.2v-639.3"/><path class="st3" d="M3255.2-1810.9h-812.1v-791.5"/><path class="st3" d="M2851.8-1824.9h-395.6v-639.3"/><path class="st3" d="M3255.2-1836.9h-786v-765.5M3255.2-1296.2H1946.4V-7.7"/><path class="st3" d="M2852.2-1284.3h-892.8V-645"/><path class="st3" d="M3255.2-1270.2H1972.9V-7.7"/><path class="st3" d="M2852.2-1256.2H1986v639.3"/><path class="st3" d="M3255.2-1244.2H1999v1243"/><path class="st3" d="M2852.2-1231.2h-840.1v639.3"/><path class="st3" d="M3255.2-1217.1H2025.6V-7.7"/><path class="st3" d="M2852.2-1203.1h-813.6v639.3"/><path class="st3" d="M3255.2-1191.1H2051.7V-7.7"/><path class="st3" d="M2852.2-1179h-788v639.3"/><path class="st3" d="M3255.2-1164.9H2077.8V-7.7"/><path class="st3" d="M2852.2-1150.9h-761.4v639.3"/><path class="st3" d="M3255.2-1138.9H2103.9V-7.7"/><path class="st3" d="M2852.2-1126.3h-735.3v639.2"/><path class="st3" d="M3255.2-1112.2H2130.4V-7.7"/><path class="st3" d="M2852.2-1098.2h-708.7V-459"/><path class="st3" d="M3255.2-1086.3H2156.5V-7.7"/><path class="st3" d="M2852.2-1074.1h-683.1v639.2"/><path class="st3" d="M3255.2-1060H2182.6V-7.7"/><path class="st3" d="M2852.2-1046h-656.6v639.2"/><path class="st3" d="M3255.2-1034H2208.7V-7.7"/><path class="st3" d="M2852.2-1022.4h-631.4v639.2"/><path class="st3" d="M3255.2-1008.3H2234.3V-7.7"/><path class="st3" d="M2852.2-994.3h-604.9v639.2"/><path class="st3" d="M3255.2-982.4h-994.8V-7.7"/><path class="st3" d="M2852.2-969.8h-578.7v639.2"/><path class="st3" d="M3255.2-955.7h-968.1v948"/><path class="st3" d="M2852.2-941.7h-552.1v639.2"/><path class="st3" d="M3255.2-929.7h-942v922"/><path class="st3" d="M2848.9-917.6h-523.2v639.2"/><path class="st3" d="M3255.2-903.5h-915.9V-7.7"/><path class="st3" d="M2852.2-889.5h-499.9v639.2"/><path class="st3" d="M3255.2-877.6h-889.9V-7.7"/><path class="st3" d="M2852.2-865.4h-474.9v639.2"/><path class="st3" d="M3255.2-851.4h-864.4V-7.7"/><path class="st3" d="M2852.2-837.3h-448.3v639.2"/><path class="st3" d="M3255.2-825.4h-838.3V-7.7"/><path class="st3" d="M2852.2-813.3H2430V-174"/><path class="st3" d="M3255.2-799.2h-811.7V-7.7"/><path class="st3" d="M2852.2-785.2h-395.7v639.3"/><path class="st3" d="M3255.2-773.2h-785.6V-7.7"/></g><g><path class="st1" d="M16.1-2588.7l497.2 499.1v639.2L16.1-1949.5z"/><path class="st2" d="M16.5-2586.9l497.1 499.1h395.7v-499.1z"/><path class="st3" d="M1311.2-2600.7H2.4v1288.5"/><path class="st3" d="M908.2-2588.7H15.4v639.2"/><path class="st3" d="M1311.2-2574.6H28.9v1262.4"/><path class="st3" d="M908.2-2560.6H42v639.2"/><path class="st3" d="M1311.2-2548.7H55v1243.1"/><path class="st3" d="M908.2-2535.6H68.1v639.2"/><path class="st3" d="M1311.2-2521.5H81.6v1209.3"/><path class="st3" d="M908.2-2507.5H94.6v639.2"/><path class="st3" d="M1311.2-2495.6H107.7v1183.4"/><path class="st3" d="M908.2-2483.4h-788v639.2"/><path class="st3" d="M1311.2-2469.4H133.8v1157.2"/><path class="st3" d="M908.2-2455.3H146.8v639.2"/><path class="st3" d="M1311.2-2443.4H159.9v1131.2"/><path class="st3" d="M908.2-2430.8H172.9v639.2"/><path class="st3" d="M1311.2-2416.7H186.4v1104.5"/><path class="st3" d="M908.2-2402.7H199.5v639.2"/><path class="st3" d="M1311.2-2390.7H212.5v1078.5"/><path class="st3" d="M908.2-2378.6H225.1v639.3"/><path class="st3" d="M1311.2-2364.5H238.6v1052.3"/><path class="st3" d="M908.2-2350.5H251.6v639.3"/><path class="st3" d="M1311.2-2338.5H264.7v1026.3"/><path class="st3" d="M908.2-2326.9H276.8v639.2"/><path class="st3" d="M1311.2-2312.8H290.3v1000.6"/><path class="st3" d="M908.2-2298.8H303.3v639.3"/><path class="st3" d="M1311.2-2286.8H316.4v974.6"/><path class="st3" d="M908.2-2274.3H329.5v639.3"/><path class="st3" d="M1311.2-2260.2H343.1v948"/><path class="st3" d="M908.2-2246.2H356.1v639.3"/><path class="st3" d="M1311.2-2234.2h-942v922"/><path class="st3" d="M904.9-2222.1H381.7v639.2"/><path class="st3" d="M1311.2-2208H395.3v895.8"/><path class="st3" d="M908.2-2194H408.3v639.2"/><path class="st3" d="M1311.2-2182H421.3v869.8"/><path class="st3" d="M908.2-2169.9H433.3v639.2"/><path class="st3" d="M1311.2-2155.8H446.8v843.6"/><path class="st3" d="M908.2-2141.8H459.9v639.2"/><path class="st3" d="M1311.2-2129.9H472.9v817.7"/><path class="st3" d="M908.2-2117.7H486v639.2"/><path class="st3" d="M1311.2-2103.6H499.5v791.4"/><path class="st3" d="M908.2-2089.6H512.5v639.2"/><path class="st3" d="M1311.2-2077.7H525.6v765.5"/></g></pattern><pattern id="SVGID_1_" xlink:href="#Arizona1" patternTransform="translate(-6977 -2912)"/><path class="st4" d="M-.5-.5h8939v7151H-.5z"/></svg>